<svg width="299" height="87" viewBox="0 0 299 87" fill="none" xmlns="http://www.w3.org/2000/svg">
<defs>
<linearGradient id="typoGradient" x1="0%" y1="0%" x2="100%" y2="100%">
<stop offset="0%" stop-color="#8B5CF6" />
<stop offset="100%" stop-color="#EC4899" />
</linearGradient>
</defs>
<path fill-rule="evenodd" clip-rule="evenodd" d="M4.01641 0.5C-0.483638 1 0.0165446 3.61152 0.0165446 34.0595C0.0165446 61.5175 0.151543 63.8365 1.84554 65.3685C3.41954 66.7935 6.47755 67.0235 23.8225 67.0235H43.9705L45.5735 64.5765C46.5165 62.5 46.0165 62 45.8345 59.3265L44.4915 56.5235L28.2545 56.2485L12.0165 55.9735V29.6215C12.0165 9.73851 11.7095 3.02251 10.7665 2.26851C9.51654 0 6.01636 0.277786 4.01641 0.5ZM287.09 2.65851C285.516 6 285.516 7.5 287.472 10.5685C293.626 16.7235 301.539 8.5 297.001 2.73051C294.159 -0.882487 289.899 -0.913486 287.09 2.65851ZM70.2005 19.0815C57.1765 21.6775 48.8965 34.9735 51.9125 48.4495C53.3105 54.6955 57.6515 61.2225 62.2785 64.0365C70.7725 69.2025 82.8996 68.7885 90.8016 63.0635C101.201 55.5315 103.481 40.4535 96.0025 28.6635C91.1985 21.0875 80.3495 17.0585 70.2005 19.0815ZM107.588 20.5945C106.724 21.4595 106.017 22.8485 106.017 23.6825C106.017 24.5155 109.922 34.2005 114.694 45.2035C120.518 58.6315 124.121 65.7015 125.653 66.7045C128.873 68.8145 133.687 67.5735 135.41 64.1905C138.293 58.5275 152.017 25.0045 152.017 23.6235C152.017 21.4015 149.156 19.0235 146.485 19.0235C142.688 19.0235 140.873 21.9425 135.025 37.4555C132.005 45.4685 129.305 52.0185 129.025 52.0115C128.746 52.0055 126.045 45.3705 123.023 37.2685C120.002 29.1655 116.739 21.7455 115.773 20.7795C113.593 18.5995 109.672 18.5115 107.588 20.5945ZM158.588 20.5945C157.724 21.4595 157.017 22.8725 157.017 23.7345C157.017 24.5975 160.889 34.0725 165.622 44.7905L174.227 64.2775L170.415 73.7105C165.981 84.6835 166.298 86.5235 172.624 86.5235C176.067 86.5235 176.714 86.1225 178.27 83.0235C181.779 76.0315 203.017 25.0635 203.017 23.6345C203.017 21.4135 200.166 19.0235 197.518 19.0235C194.079 19.0235 192.147 22.0995 186.017 37.3315C182.992 44.8475 180.29 51.0035 180.012 51.0105C179.734 51.0175 178.43 48.2115 177.115 44.7735C172.304 32.2025 167.068 20.6725 165.809 19.8735C163.73 18.5545 160.284 18.8985 158.588 20.5945ZM240.364 20.9535C236.047 22.9135 234.431 25.6025 235.516 29.0215C236.391 31.7785 240.194 32.5005 243.86 30.6045C248.381 28.2665 257.496 28.5025 260.017 31.0235C261.117 32.1235 262.017 34.0815 262.017 35.3745C262.017 37.6145 261.607 37.7555 253.419 38.3335C239.121 39.3425 232.024 44.3805 232.024 53.5235C232.024 65.4015 246.399 71.7175 258.765 65.2715C263.516 63.5 264.016 61.5 265.016 65.0895C266.516 67.5 271.639 67.6515 272.804 65.2735C274.085 62.6565 273.479 33.0605 272.072 29.5255C270.467 25.4955 268.247 23.1835 263.807 20.9175C258.695 18.3075 246.147 18.3275 240.364 20.9535ZM287.574 22.2465C286.297 24.0685 286.017 27.8955 286.017 43.5235C286.017 65.2295 286.515 67.0235 292.539 67.0235C294.885 67.0235 296.269 66.4205 296.982 65.0895C297.596 63.9405 298.017 55.0305 298.017 43.1605C298.017 26.3175 297.769 22.9185 296.446 21.5945C294.113 19.2625 289.422 19.6065 287.574 22.2465ZM85.1366 32.8315C86.8306 34.7275 88.1315 37.6085 88.5485 40.3855C90.4385 52.9905 79.8595 61.1305 68.9315 55.4795C63.1535 52.4915 61.3346 40.1135 65.7896 34.1105C68.6926 30.1985 71.9075 28.8875 77.4576 29.3525C81.4216 29.6845 82.9386 30.3725 85.1366 32.8315ZM261.824 50.1735C261.414 55.7075 257.797 58.5235 251.097 58.5235C245.656 58.5235 243.017 56.8475 243.017 53.3915C243.017 48.8605 247.926 46.3735 257.324 46.1415L262.132 46.0235L261.824 50.1735ZM211.017 56.0235C208.314 58.7265 208.499 62.5955 211.472 65.5685C214.187 68.2845 216.062 68.5955 219.333 66.8735C222.218 65.3555 222.983 64.0825 223.002 60.7735C223.022 57.1605 219.776 54.0235 216.017 54.0235C214.35 54.0235 212.128 54.9125 211.017 56.0235Z" fill="url(#typoGradient)"/>
</svg>
